<svg width="100" height="180" viewBox="0 0 100 180" fill="none" xmlns="http://www.w3.org/2000/svg" aria-hidden="true">
  <!-- Stem -->
  <path d="M 75 160 C 18 125, 18 50, 70 15" stroke="#FEDBB2" stroke-width="2.5" stroke-linecap="round" fill="none" />
  <path d="M 0 0 C 6 -3.5, 14 -3.5, 20 0 C 14 3.5, 6 3.5, 0 0 Z" fill="#FEDBB2" opacity="0.95" transform="translate(62.41, 150.87) rotate(-177.5) scale(0.93)" />
  <path d="M 0 0 C 5.5 -3.2, 12 -3.2, 17 0 C 12 3.2, 5.5 3.2, 0 0 Z" fill="#FEDBB2" opacity="0.95" transform="translate(62.41, 150.87) rotate(-107.5) scale(0.89)" />
  <path d="M 0 0 C 6 -3.5, 14 -3.5, 20 0 C 14 3.5, 6 3.5, 0 0 Z" fill="#FEDBB2" opacity="0.95" transform="translate(48.80, 136.47) rotate(-165.1) scale(0.91)" />
  <path d="M 0 0 C 5.5 -3.2, 12 -3.2, 17 0 C 12 3.2, 5.5 3.2, 0 0 Z" fill="#FEDBB2" opacity="0.95" transform="translate(48.80, 136.47) rotate(-95.1) scale(0.86)" />
  <path d="M 0 0 C 6 -3.5, 14 -3.5, 20 0 C 14 3.5, 6 3.5, 0 0 Z" fill="#FEDBB2" opacity="0.95" transform="translate(39.16, 120.30) rotate(-152.5) scale(0.88)" />
  <path d="M 0 0 C 5.5 -3.2, 12 -3.2, 17 0 C 12 3.2, 5.5 3.2, 0 0 Z" fill="#FEDBB2" opacity="0.95" transform="translate(39.16, 120.30) rotate(-82.5) scale(0.84)" />
  <path d="M 0 0 C 6 -3.5, 14 -3.5, 20 0 C 14 3.5, 6 3.5, 0 0 Z" fill="#FEDBB2" opacity="0.95" transform="translate(33.44, 102.99) rotate(-140.0) scale(0.86)" />
  <path d="M 0 0 C 5.5 -3.2, 12 -3.2, 17 0 C 12 3.2, 5.5 3.2, 0 0 Z" fill="#FEDBB2" opacity="0.95" transform="translate(33.44, 102.99) rotate(-70.0) scale(0.82)" />
  <path d="M 0 0 C 6 -3.5, 14 -3.5, 20 0 C 14 3.5, 6 3.5, 0 0 Z" fill="#FEDBB2" opacity="0.95" transform="translate(31.60, 85.14) rotate(-127.7) scale(0.84)" />
  <path d="M 0 0 C 5.5 -3.2, 12 -3.2, 17 0 C 12 3.2, 5.5 3.2, 0 0 Z" fill="#FEDBB2" opacity="0.95" transform="translate(31.60, 85.14) rotate(-57.7) scale(0.80)" />
  <path d="M 0 0 C 6 -3.5, 14 -3.5, 20 0 C 14 3.5, 6 3.5, 0 0 Z" fill="#FEDBB2" opacity="0.95" transform="translate(33.62, 67.38) rotate(-115.4) scale(0.81)" />
  <path d="M 0 0 C 5.5 -3.2, 12 -3.2, 17 0 C 12 3.2, 5.5 3.2, 0 0 Z" fill="#FEDBB2" opacity="0.95" transform="translate(33.62, 67.38) rotate(-45.4) scale(0.77)" />
  <path d="M 0 0 C 6 -3.5, 14 -3.5, 20 0 C 14 3.5, 6 3.5, 0 0 Z" fill="#FEDBB2" opacity="0.95" transform="translate(39.45, 50.31) rotate(-102.9) scale(0.79)" />
  <path d="M 0 0 C 5.5 -3.2, 12 -3.2, 17 0 C 12 3.2, 5.5 3.2, 0 0 Z" fill="#FEDBB2" opacity="0.95" transform="translate(39.45, 50.31) rotate(-32.9) scale(0.75)" />
  <path d="M 0 0 C 6 -3.5, 14 -3.5, 20 0 C 14 3.5, 6 3.5, 0 0 Z" fill="#FEDBB2" opacity="0.95" transform="translate(49.05, 34.54) rotate(-90.4) scale(0.77)" />
  <path d="M 0 0 C 5.5 -3.2, 12 -3.2, 17 0 C 12 3.2, 5.5 3.2, 0 0 Z" fill="#FEDBB2" opacity="0.95" transform="translate(49.05, 34.54) rotate(-20.4) scale(0.73)" />
  <!-- Terminal Leaf -->
  <path d="M 0 0 C 6 -3.2, 13 -3.2, 18 0 C 13 3.2, 6 3.2, 0 0 Z" fill="#FEDBB2" transform="translate(65.46, 18.26) rotate(-37.4) scale(0.65)" />
</svg>