<svg width="100" height="180" viewBox="0 0 100 180" fill="none" xmlns="http://www.w3.org/2000/svg" aria-hidden="true">
  <!-- Stem -->
  <path d="M 25 160 C 82 125, 82 50, 30 15" stroke="#FEDBB2" stroke-width="2.5" stroke-linecap="round" fill="none" />
  <path d="M 0 0 C 6 -3.5, 14 -3.5, 20 0 C 14 3.5, 6 3.5, 0 0 Z" fill="#FEDBB2" opacity="0.95" transform="translate(37.59, 150.87) rotate(-2.5) scale(0.93)" />
  <path d="M 0 0 C 5.5 -3.2, 12 -3.2, 17 0 C 12 3.2, 5.5 3.2, 0 0 Z" fill="#FEDBB2" opacity="0.95" transform="translate(37.59, 150.87) rotate(-72.5) scale(0.89)" />
  <path d="M 0 0 C 6 -3.5, 14 -3.5, 20 0 C 14 3.5, 6 3.5, 0 0 Z" fill="#FEDBB2" opacity="0.95" transform="translate(51.20, 136.47) rotate(-14.9) scale(0.91)" />
  <path d="M 0 0 C 5.5 -3.2, 12 -3.2, 17 0 C 12 3.2, 5.5 3.2, 0 0 Z" fill="#FEDBB2" opacity="0.95" transform="translate(51.20, 136.47) rotate(-84.9) scale(0.86)" />
  <path d="M 0 0 C 6 -3.5, 14 -3.5, 20 0 C 14 3.5, 6 3.5, 0 0 Z" fill="#FEDBB2" opacity="0.95" transform="translate(60.84, 120.30) rotate(-27.5) scale(0.88)" />
  <path d="M 0 0 C 5.5 -3.2, 12 -3.2, 17 0 C 12 3.2, 5.5 3.2, 0 0 Z" fill="#FEDBB2" opacity="0.95" transform="translate(60.84, 120.30) rotate(-97.5) scale(0.84)" />
  <path d="M 0 0 C 6 -3.5, 14 -3.5, 20 0 C 14 3.5, 6 3.5, 0 0 Z" fill="#FEDBB2" opacity="0.95" transform="translate(66.56, 102.99) rotate(-40.0) scale(0.86)" />
  <path d="M 0 0 C 5.5 -3.2, 12 -3.2, 17 0 C 12 3.2, 5.5 3.2, 0 0 Z" fill="#FEDBB2" opacity="0.95" transform="translate(66.56, 102.99) rotate(-110.0) scale(0.82)" />
  <path d="M 0 0 C 6 -3.5, 14 -3.5, 20 0 C 14 3.5, 6 3.5, 0 0 Z" fill="#FEDBB2" opacity="0.95" transform="translate(68.40, 85.14) rotate(-52.3) scale(0.84)" />
  <path d="M 0 0 C 5.5 -3.2, 12 -3.2, 17 0 C 12 3.2, 5.5 3.2, 0 0 Z" fill="#FEDBB2" opacity="0.95" transform="translate(68.40, 85.14) rotate(-122.3) scale(0.80)" />
  <path d="M 0 0 C 6 -3.5, 14 -3.5, 20 0 C 14 3.5, 6 3.5, 0 0 Z" fill="#FEDBB2" opacity="0.95" transform="translate(66.38, 67.38) rotate(-64.6) scale(0.81)" />
  <path d="M 0 0 C 5.5 -3.2, 12 -3.2, 17 0 C 12 3.2, 5.5 3.2, 0 0 Z" fill="#FEDBB2" opacity="0.95" transform="translate(66.38, 67.38) rotate(-134.6) scale(0.77)" />
  <path d="M 0 0 C 6 -3.5, 14 -3.5, 20 0 C 14 3.5, 6 3.5, 0 0 Z" fill="#FEDBB2" opacity="0.95" transform="translate(60.55, 50.31) rotate(-77.1) scale(0.79)" />
  <path d="M 0 0 C 5.5 -3.2, 12 -3.2, 17 0 C 12 3.2, 5.5 3.2, 0 0 Z" fill="#FEDBB2" opacity="0.95" transform="translate(60.55, 50.31) rotate(-147.1) scale(0.75)" />
  <path d="M 0 0 C 6 -3.5, 14 -3.5, 20 0 C 14 3.5, 6 3.5, 0 0 Z" fill="#FEDBB2" opacity="0.95" transform="translate(50.95, 34.54) rotate(-89.6) scale(0.77)" />
  <path d="M 0 0 C 5.5 -3.2, 12 -3.2, 17 0 C 12 3.2, 5.5 3.2, 0 0 Z" fill="#FEDBB2" opacity="0.95" transform="translate(50.95, 34.54) rotate(-159.6) scale(0.73)" />
  <!-- Terminal Leaf -->
  <path d="M 0 0 C 6 -3.2, 13 -3.2, 18 0 C 13 3.2, 6 3.2, 0 0 Z" fill="#FEDBB2" transform="translate(34.54, 18.26) rotate(-142.6) scale(0.65)" />
</svg>