<svg width="29" height="29" viewBox="0 0 24 24" fill="none" stroke="url(#purpleGrad)" stroke-width="2" stroke-linecap="round" stroke-linejoin="round" xmlns="http://www.w3.org/2000/svg">
  <path d="M22 16.92v3a2 2 0 0 1-2.18 2 19.79 19.79 0 0 1-8.63-3.07 19.5 19.5 0 0 1-6-6 19.79 19.79 0 0 1-3.07-8.67A2 2 0 0 1 4.11 2h3a2 2 0 0 1 2 1.72 12.84 12.84 0 0 0 .7 2.81 2 2 0 0 1-.45 2.11L8.09 9.91a16 16 0 0 0 6 6l1.27-1.27a2 2 0 0 1 2.11-.45 12.84 12.84 0 0 0 2.81.7A2 2 0 0 1 22 16.92z"></path>
  <path d="M14.05 2a9 9 0 0 1 8 7.94"></path>
  <path d="M14.05 6A5 5 0 0 1 18 10"></path>
  <defs>
    <linearGradient id="purpleGrad" x1="29" y1="0" x2="0" y2="29" gradientUnits="userSpaceOnUse">
      <stop stop-color="#000E38"/><stop offset="1" stop-color="#3F186A"/>
    </linearGradient>
  </defs>
</svg>
