<svg width="309" height="165" viewBox="0 0 309 165" fill="none" xmlns="http://www.w3.org/2000/svg" aria-hidden="true">
  <path d="M42 82.5C42 52 58 28 82 18" stroke="#D4B896" stroke-width="2.5" stroke-linecap="round" fill="none"/>
  <path d="M38 82.5C38 48 52 22 78 12" stroke="#D4B896" stroke-width="2" stroke-linecap="round" fill="none"/>
  <path d="M34 82.5C34 44 48 18 74 8" stroke="#D4B896" stroke-width="1.5" stroke-linecap="round" fill="none"/>
  <path d="M30 82.5C30 40 44 14 70 4" stroke="#D4B896" stroke-width="1.5" stroke-linecap="round" fill="none"/>
  <path d="M267 82.5C267 52 251 28 227 18" stroke="#D4B896" stroke-width="2.5" stroke-linecap="round" fill="none"/>
  <path d="M271 82.5C271 48 257 22 231 12" stroke="#D4B896" stroke-width="2" stroke-linecap="round" fill="none"/>
  <path d="M275 82.5C275 44 261 18 235 8" stroke="#D4B896" stroke-width="1.5" stroke-linecap="round" fill="none"/>
  <path d="M279 82.5C279 40 265 14 239 4" stroke="#D4B896" stroke-width="1.5" stroke-linecap="round" fill="none"/>
  <path d="M55 82.5C55 110 75 135 105 148" stroke="#D4B896" stroke-width="2.5" stroke-linecap="round" fill="none"/>
  <path d="M51 82.5C51 112 72 138 100 152" stroke="#D4B896" stroke-width="2" stroke-linecap="round" fill="none"/>
  <path d="M244 82.5C244 110 226 135 204 148" stroke="#D4B896" stroke-width="2.5" stroke-linecap="round" fill="none"/>
  <path d="M248 82.5C248 112 227 138 201 152" stroke="#D4B896" stroke-width="2" stroke-linecap="round" fill="none"/>
</svg>
